<?xml version="1.0" standalone="no"?>
<!DOCTYPE svg PUBLIC "-//W3C//DTD SVG 20010904//EN"
 "http://www.w3.org/TR/2001/REC-SVG-20010904/DTD/svg10.dtd">
<svg version="1.0" xmlns="http://www.w3.org/2000/svg"
 width="1123.000000pt" height="1123.000000pt" viewBox="0 0 1123.000000 1123.000000"
 preserveAspectRatio="xMidYMid meet">
<metadata>
Created by potrace 1.14, written by Peter Selinger 2001-2017
</metadata>
<g transform="translate(0.000000,1123.000000) scale(0.100000,-0.100000)"
fill="#000000" stroke="none">
<path d="M4880 9099 c-756 -48 -1487 -276 -2020 -630 -520 -346 -833 -783
-905 -1264 -22 -150 -22 -2730 0 -2880 50 -330 206 -629 475 -908 545 -566
1439 -923 2470 -987 214 -13 1166 -13 1380 0 853 53 1615 307 2175 724 150
112 387 348 475 473 169 241 258 451 295 698 22 150 22 2730 0 2880 -49 324
-203 622 -463 895 -206 217 -455 398 -757 552 -517 262 -1091 410 -1740 448
-201 12 -1191 11 -1385 -1z m1600 -43 c493 -56 890 -155 1275 -318 786 -331
1297 -856 1431 -1468 18 -81 19 -158 19 -1505 0 -1346 -1 -1424 -19 -1504 -67
-308 -212 -571 -455 -823 -508 -530 -1318 -870 -2306 -970 -183 -18 -1487 -18
-1670 0 -604 61 -1105 200 -1570 436 -690 350 -1130 879 -1205 1448 -8 58 -10
507 -7 1468 3 1375 3 1386 24 1471 83 334 253 617 526 875 518 489 1339 817
2237 894 205 17 210 17 905 15 549 -2 696 -5 815 -19z"/>
<path d="M4685 8559 c-566 -50 -1079 -238 -1484 -542 -115 -86 -300 -264 -384
-367 -201 -249 -329 -530 -378 -828 -19 -117 -20 -161 -16 -1070 3 -937 3
-948 25 -1045 84 -366 271 -693 545 -954 409 -388 960 -632 1607 -710 211 -25
989 -25 1200 0 652 79 1200 320 1604 707 288 275 466 584 548 950 l23 105 0
990 0 990 -23 109 c-123 575 -538 1067 -1157 1371 -297 146 -577 229 -945 281
-90 13 -218 17 -590 19 -261 2 -520 -1 -575 -6z"/>
</g>
</svg>
