<?xml version="1.0" standalone="no"?>
<!DOCTYPE svg PUBLIC "-//W3C//DTD SVG 20010904//EN"
 "http://www.w3.org/TR/2001/REC-SVG-20010904/DTD/svg10.dtd">
<svg version="1.0" xmlns="http://www.w3.org/2000/svg"
 width="700.000000pt" height="700.000000pt" viewBox="0 0 700.000000 700.000000"
 preserveAspectRatio="xMidYMid meet">
<metadata>
Created by potrace 1.14, written by Peter Selinger 2001-2017
</metadata>
<g transform="translate(0.000000,700.000000) scale(0.100000,-0.100000)"
fill="#000000" stroke="none">
<path d="M3127 6294 c-1 -1 -58 -4 -127 -8 -126 -6 -143 -7 -280 -27 -257 -36
-495 -99 -750 -199 -69 -27 -286 -136 -322 -161 -14 -11 -29 -19 -33 -19 -8 0
-151 -98 -230 -159 -91 -69 -283 -267 -347 -356 -123 -174 -216 -379 -244
-542 -2 -13 -7 -35 -11 -50 -4 -16 -8 -541 -10 -1168 -1 -925 1 -1156 12
-1225 106 -661 718 -1207 1605 -1430 47 -12 94 -24 105 -26 11 -2 43 -8 70
-14 232 -46 377 -55 925 -55 522 0 593 3 806 35 414 63 805 204 1117 402 282
180 521 429 652 680 40 78 120 288 109 288 -2 0 -1 8 5 18 10 19 20 82 29 192
4 41 7 559 6 1150 -1 1114 0 1082 -39 1272 -10 51 -57 172 -101 260 -260 525
-869 926 -1634 1078 -122 24 -243 41 -405 56 -58 5 -902 13 -908 8z"/>
</g>
</svg>
